# xmcd CD database file generated by Grip 3.2.0
# 
# Track frame offsets:
#       150
#       38017
#       62785
#       95095
#       149455
#       198527
#       235897
#       269647
# 
# Disc length: 4486 seconds
# 
# Revision: 4
# Processed by: cddbd v1.5.1PL0 Copyright (c) Steve Scherf et al.
# Submitted via: Grip 3.2.0
# 
DISCID=7a118408
DTITLE=The Other Ones - The Strange Remain (Disk 1)
DYEAR=1999
DGENRE=Rock
TTITLE0=St. Stephen
TTITLE1=The Eleven
TTITLE2=Jack Straw
TTITLE3=Sugaree
TTITLE4=Corrina
TTITLE5=Only the Strange Remain
TTITLE6=White-Wheeled Limousine
TTITLE7=Estimated Prophet
EXTD=
EXTT0=
EXTT1=
EXTT2=
EXTT3=
EXTT4=
EXTT5=
EXTT6=
EXTT7=
PLAYORDER=
